<?xml version="1.0" standalone="no"?>
<!DOCTYPE svg PUBLIC "-//W3C//DTD SVG 20010904//EN"
 "http://www.w3.org/TR/2001/REC-SVG-20010904/DTD/svg10.dtd">
<svg version="1.0" xmlns="http://www.w3.org/2000/svg"
 width="440.800000pt" height="592.800000pt" viewBox="0 0 440.800000 592.800000"
 preserveAspectRatio="xMidYMid meet">
<metadata>
Created by potrace 1.13, written by Peter Selinger 2001-2015
</metadata>
<g transform="translate(0.000000,592.800000) scale(0.080000,-0.080000)"
fill="#000000" stroke="none">
<path d="M3399 7190 c26 -22 41 -26 41 -10 0 6 -12 15 -26 20 -37 15 -42 12
-15 -10z"/>
<path d="M3597 7123 c-12 -20 -18 -133 -8 -133 11 0 13 7 15 90 1 51 0 55 -7
43z"/>
<path d="M3940 7111 c0 -5 12 -11 28 -14 20 -4 31 -15 40 -40 21 -59 17 -69
-25 -62 l-38 6 29 -16 c17 -10 42 -15 62 -13 26 3 34 0 34 -12 0 -13 2 -13 9
0 12 18 3 33 -16 26 -12 -5 -14 -1 -9 19 5 21 -1 35 -31 70 -24 28 -47 44 -60
45 -13 0 -23 -4 -23 -9z"/>
<path d="M3902 7050 c-16 -26 -15 -40 3 -40 10 0 15 10 15 30 0 35 -1 36 -18
10z"/>
<path d="M1508 7029 c-13 -21 -12 -30 9 -98 13 -42 28 -80 34 -85 15 -16 10
-29 -6 -16 -29 24 -15 -9 20 -47 37 -41 41 -48 25 -58 -17 -11 -11 -33 11 -40
12 -4 37 -23 58 -43 20 -21 65 -49 101 -63 77 -32 274 -85 347 -95 l52 -6 -4
-59 c-3 -33 -1 -59 4 -59 4 0 14 25 21 55 7 30 16 55 20 55 14 0 247 -31 268
-35 19 -5 22 -12 22 -54 0 -54 7 -81 21 -81 5 0 9 29 9 65 0 61 1 65 23 65 33
0 42 -10 57 -65 16 -62 28 -85 42 -85 7 0 8 22 4 70 l-7 69 98 -5 c98 -6 322
7 463 27 41 6 104 14 140 18 36 5 52 9 37 10 -16 0 -25 5 -22 11 3 6 0 10 -7
10 -18 0 -74 95 -108 181 l-20 49 33 17 c23 12 69 19 160 24 70 3 130 8 133
11 2 3 -9 20 -25 37 -28 29 -54 92 -64 151 l-4 25 -2 -26 c-1 -24 -5 -27 -58
-33 -46 -5 -59 -4 -65 9 -7 11 -26 15 -75 15 -55 0 -72 4 -99 25 -36 28 -44
21 -38 -38 3 -42 21 -37 -156 -43 -47 -2 -103 -8 -125 -13 -39 -10 -123 1
-150 20 -20 13 -75 21 -75 10 0 -6 7 -11 15 -11 9 0 15 -9 15 -23 0 -21 -7
-24 -69 -34 -71 -11 -223 -2 -271 17 -14 5 -72 19 -130 30 -110 22 -163 36
-192 51 -10 5 -27 9 -38 9 -19 0 -71 15 -185 52 -77 25 -134 39 -181 44 -45 5
-52 3 -66 -17z m1342 -190 l35 -1 -32 -8 c-17 -4 -56 -5 -85 -2 -47 5 -50 7
-23 13 17 4 39 5 50 3 11 -2 36 -4 55 -5z"/>
<path d="M3760 7030 c0 -5 6 -7 14 -4 8 3 17 1 20 -5 4 -6 -7 -8 -30 -5 -29 4
-41 -1 -61 -21 -14 -14 -29 -25 -32 -25 -3 0 -11 -8 -18 -18 -9 -15 -7 -21 9
-31 18 -11 20 -11 15 3 -7 18 1 46 13 46 4 0 10 -14 14 -31 7 -36 61 -90 82
-82 7 3 14 9 14 14 0 5 12 9 28 9 40 0 49 10 54 62 5 47 -11 92 -27 76 -4 -4
-17 -1 -29 7 -23 17 -66 20 -66 5z m0 -42 c16 -12 33 -19 37 -15 3 4 1 7 -5 7
-7 0 -12 5 -12 10 0 20 27 9 38 -15 20 -44 15 -74 -14 -85 -27 -11 -54 1 -54
23 0 6 -9 21 -21 33 -14 15 -19 29 -14 43 8 26 9 26 45 -1z"/>
<path d="M3627 6913 c-10 -9 -8 -51 2 -57 5 -3 11 10 13 29 4 34 -1 43 -15 28z"/>
<path d="M3820 6790 c-14 -11 -33 -20 -42 -20 -10 0 -18 -4 -18 -10 0 -12 0
-12 39 1 17 6 36 20 42 30 12 24 10 23 -21 -1z"/>
<path d="M4401 6782 c-1 -7 -13 -18 -28 -24 -16 -7 -36 -18 -45 -26 -9 -7 -36
-20 -60 -27 -24 -8 -35 -14 -24 -14 21 -1 134 46 155 65 7 6 11 18 8 26 -4 10
-6 10 -6 0z"/>
<path d="M4178 6685 c-3 -3 -40 -6 -84 -7 -62 -1 -73 -3 -49 -10 33 -9 141 -1
165 13 12 7 11 8 -6 9 -11 0 -23 -2 -26 -5z"/>
<path d="M3810 6620 c-60 -69 -90 -85 -194 -104 -96 -17 -122 -27 -61 -23 l38
2 14 -55 c7 -30 21 -80 31 -110 l17 -55 3 39 c2 22 2 73 0 113 -2 40 -1 73 2
74 6 1 30 5 78 14 18 3 39 8 46 11 16 6 41 -50 30 -67 -4 -8 -3 -10 4 -5 8 5
12 -1 12 -16 0 -13 5 -30 11 -38 8 -11 9 -6 5 20 -3 19 -8 69 -12 111 -5 63
-3 79 11 93 9 9 15 23 13 32 -2 11 -17 0 -48 -36z"/>
<path d="M3916 6641 c-7 -11 32 -106 40 -98 8 8 -18 107 -27 107 -4 0 -10 -4
-13 -9z"/>
<path d="M3132 6200 c-1 -14 -5 -36 -8 -50 -5 -19 -4 -22 5 -14 7 7 11 28 8
50 -2 22 -4 28 -5 14z"/>
<path d="M3830 6186 c0 -14 5 -28 10 -31 6 -4 10 7 10 24 0 17 -4 31 -10 31
-5 0 -10 -11 -10 -24z"/>
<path d="M1532 6167 c-7 -19 -12 -40 -12 -48 0 -9 -9 -34 -20 -57 -21 -42 -27
-112 -11 -112 6 0 9 8 9 18 -1 9 11 64 26 120 27 103 31 143 8 79z"/>
<path d="M3857 6144 c-3 -3 -1 -18 4 -33 5 -15 11 -72 13 -127 7 -157 16 -226
32 -220 7 3 18 -1 24 -9 6 -7 31 -15 55 -17 43 -3 45 -2 45 23 0 29 -19 39
-77 39 -17 0 -34 4 -37 8 -3 5 -15 83 -26 173 -12 90 -23 165 -24 166 -2 2 -5
0 -9 -3z"/>
<path d="M3101 6037 c-12 -45 -29 -100 -37 -122 -18 -53 -17 -68 2 -32 9 16
18 27 20 24 3 -2 -2 -53 -11 -112 -9 -59 -14 -110 -11 -113 3 -3 6 -1 6 5 0 5
9 53 20 106 17 82 43 317 36 324 -1 2 -13 -34 -25 -80z"/>
<path d="M2147 6000 c-9 -33 -9 -194 1 -245 6 -34 8 -25 12 55 l5 95 23 -47
c28 -59 49 -64 23 -5 -27 59 -33 76 -46 127 -10 41 -11 43 -18 20z"/>
<path d="M3412 5865 c-7 -33 -19 -78 -27 -100 -8 -23 -15 -46 -15 -53 0 -17
-50 -124 -68 -144 -13 -16 -13 -18 1 -24 37 -14 62 0 73 41 6 22 13 47 16 55
12 31 40 226 36 255 -3 25 -6 19 -16 -30z"/>
<path d="M2004 5725 c0 -55 1 -76 3 -47 2 29 2 74 0 100 -2 26 -3 2 -3 -53z"/>
<path d="M3950 5687 c0 -23 6 -51 14 -62 7 -11 21 -60 30 -110 10 -49 18 -95
20 -102 1 -7 6 -16 10 -20 5 -4 6 6 3 22 -41 215 -48 246 -57 240 -4 -3 -6 13
-3 35 4 26 2 40 -6 40 -6 0 -11 -18 -11 -43z"/>
<path d="M1462 5688 c-7 -20 -8 -36 -3 -41 6 -6 12 5 17 27 3 20 5 39 2 41 -2
2 -9 -10 -16 -27z"/>
<path d="M2726 5605 c4 -60 8 -112 10 -114 9 -10 3 195 -6 209 -6 10 -7 -23
-4 -95z"/>
<path d="M3642 5616 c-11 -31 -11 -38 2 -51 19 -20 23 -19 36 6 9 16 8 23 -3
32 -9 7 -17 21 -19 31 -2 14 -7 9 -16 -18z"/>
<path d="M3136 5606 c-3 -13 -9 -31 -12 -40 -3 -9 -2 -16 4 -16 5 0 13 16 17
36 7 41 1 58 -9 20z"/>
<path d="M3735 5482 c-23 -26 -35 -28 -35 -7 0 8 -5 15 -11 15 -12 0 -8 -26
11 -76 l10 -26 26 47 c28 54 27 81 -1 47z"/>
<path d="M1825 5388 c-11 -12 -14 -17 -6 -13 9 5 19 2 28 -10 12 -17 13 -16
13 13 0 37 -7 39 -35 10z"/>
<path d="M3834 5325 c-15 -23 -15 -27 -2 -43 9 -9 17 -23 20 -31 2 -8 4 11 4
42 -1 31 -2 57 -3 57 -2 0 -10 -11 -19 -25z"/>
<path d="M3728 5284 c-3 -5 -9 -26 -12 -48 -7 -39 -24 -76 -39 -87 -5 -4 -7
-15 -5 -25 2 -14 18 1 58 59 29 42 57 77 62 77 4 0 8 5 8 11 0 5 -10 3 -22 -5
-21 -15 -23 -14 -34 5 -6 12 -13 18 -16 13z"/>
<path d="M3026 5262 c-3 -6 -3 -17 0 -26 5 -12 20 -15 80 -12 63 3 74 1 69
-11 -4 -12 0 -14 17 -10 13 3 44 9 70 12 27 4 49 13 52 22 5 13 -3 14 -56 8
-35 -5 -67 -8 -73 -8 -17 0 -119 21 -136 28 -10 3 -20 2 -23 -3z"/>
<path d="M1677 5165 c-8 -97 -21 -175 -43 -270 -25 -112 -44 -231 -43 -276 l1
-44 9 55 c5 30 21 107 36 170 l28 115 5 -190 5 -190 7 110 c14 199 18 449 10
530 l-8 80 -7 -90z"/>
<path d="M2043 5229 c-24 -8 -6 -16 60 -23 38 -5 55 -11 50 -18 -4 -8 0 -9 13
-3 35 14 74 18 74 6 0 -7 9 -6 25 5 13 8 29 13 35 9 12 -8 120 15 120 25 0 9
-353 8 -377 -1z"/>
<path d="M3590 5169 c0 -2 -9 -28 -20 -57 -11 -30 -16 -51 -11 -48 5 3 13 -6
17 -22 7 -22 9 -12 14 48 3 41 5 77 3 79 -2 2 -3 2 -3 0z"/>
<path d="M1254 5033 c1 -98 5 -135 15 -145 12 -11 12 -9 6 12 -4 14 -11 79
-15 145 l-7 120 1 -132z"/>
<path d="M4111 5059 c-1 -118 7 -189 23 -183 6 2 22 -12 36 -32 14 -19 39 -54
56 -77 17 -23 47 -73 68 -112 43 -80 56 -97 56 -72 0 9 -5 17 -11 17 -5 0 -7
6 -3 13 4 6 3 9 -1 4 -10 -9 -37 51 -29 64 3 5 -1 9 -9 9 -8 0 -18 11 -21 25
-3 13 -18 37 -32 52 -40 42 -94 129 -94 151 0 10 -4 32 -10 48 -5 16 -14 65
-19 109 l-8 80 -2 -96z"/>
<path d="M4231 5145 c10 -26 65 -115 71 -115 8 0 -47 98 -64 115 -7 7 -9 7 -7
0z"/>
<path d="M1854 5053 c3 -10 17 -58 31 -108 15 -49 29 -92 33 -95 20 -15 37
-66 58 -175 35 -179 97 -428 111 -443 6 -6 22 -32 34 -57 12 -25 26 -45 31
-45 4 0 8 -6 8 -14 0 -16 101 -106 119 -106 6 0 11 7 11 16 0 25 42 94 57 94
15 0 17 -16 3 -25 -7 -4 -7 -12 0 -25 7 -13 6 -20 -3 -23 -7 -3 -4 -6 6 -6 25
-1 16 -25 -11 -29 -12 -2 -22 -10 -22 -17 0 -16 -77 -18 -98 -2 -16 12 -26 3
-19 -18 4 -8 17 -15 31 -15 14 0 28 -5 32 -12 5 -7 2 -9 -9 -5 -8 3 -18 0 -21
-8 -8 -21 -74 -30 -126 -16 -76 21 -116 76 -71 101 25 13 92 13 127 0 38 -15
39 -7 4 31 -27 29 -91 139 -90 154 0 3 -8 14 -18 25 -15 17 -41 85 -67 178 -4
12 -12 22 -19 22 -8 0 -18 12 -24 28 -25 68 -26 68 -30 14 -2 -29 4 -115 14
-190 9 -75 16 -146 15 -157 -1 -32 57 -240 85 -303 25 -56 73 -115 126 -153
l27 -20 59 46 c60 45 72 61 72 96 0 12 7 19 20 19 17 0 18 -3 10 -26 -14 -36
-13 -61 1 -47 7 7 13 32 15 56 3 42 2 44 -20 40 -13 -3 -27 0 -30 6 -10 16
-29 13 -23 -4 3 -7 -2 -24 -12 -37 -17 -21 -17 -23 -2 -35 17 -13 21 -13 -66
-15 -18 0 -30 -5 -27 -9 5 -8 -10 -13 -28 -10 -13 2 -9 -17 5 -22 8 -4 8 -6 1
-6 -7 -1 -22 8 -35 19 -24 19 -24 19 -2 20 12 0 28 6 35 14 8 7 23 16 35 20
11 4 28 15 38 26 17 19 17 20 -9 30 -18 6 -34 7 -45 0 -10 -5 -20 -8 -22 -6
-2 2 -19 6 -36 9 -28 5 -33 3 -33 -12 0 -10 8 -25 17 -32 15 -12 16 -12 10 3
-3 10 -2 20 4 23 17 11 22 -26 6 -43 -15 -14 -18 -14 -36 2 -24 22 -45 81 -35
97 11 18 166 3 181 -17 14 -19 35 -10 27 11 -6 14 48 75 66 75 5 0 12 9 15 20
8 26 41 26 55 -1 17 -31 25 -14 10 22 -7 17 -13 46 -12 65 1 19 -2 34 -7 34
-16 0 -21 44 -7 60 8 8 17 25 20 37 4 12 15 24 24 26 11 3 9 5 -7 6 -23 1 -23
2 -8 19 10 10 14 22 10 25 -3 4 0 19 8 35 23 45 49 56 49 21 0 -15 4 -19 16
-15 19 7 87 -31 78 -45 -3 -5 4 -9 16 -9 12 0 19 -4 16 -8 -10 -16 82 -34 136
-26 29 4 57 7 63 5 5 -1 7 0 3 4 -16 16 62 55 110 55 11 0 23 4 27 10 3 5 11
8 18 6 7 -1 9 -1 5 1 -13 8 4 32 18 26 10 -4 13 0 8 13 -5 16 -2 15 14 -4 14
-15 22 -18 25 -10 3 8 6 6 6 -4 1 -10 5 -18 9 -18 5 0 8 -20 7 -45 0 -25 3
-45 7 -45 4 0 8 -7 8 -15 0 -8 5 -15 11 -15 11 0 27 -15 90 -87 11 -12 24 -37
30 -55 8 -29 6 -35 -13 -51 l-22 -18 29 7 c15 4 40 19 55 33 52 51 64 75 132
264 6 15 17 27 25 27 11 0 9 7 -7 30 -12 17 -27 30 -33 30 -7 0 -25 19 -40 42
-15 23 -27 37 -27 30 0 -7 -11 -12 -24 -12 -21 0 -27 8 -41 56 -9 31 -14 63
-11 70 3 8 1 24 -4 36 l-9 23 0 -22 c-2 -48 -133 -153 -368 -292 -101 -60
-134 -63 -225 -16 -40 20 -82 44 -93 54 -11 9 -47 34 -80 56 -135 89 -315 245
-315 274 0 4 12 6 28 3 25 -4 24 -3 -13 26 -22 16 -50 39 -62 51 -26 25 -33
26 -33 6 0 -8 -5 -15 -10 -15 -6 0 -8 -11 -4 -26 5 -18 3 -25 -4 -20 -6 3 -14
21 -17 39 -4 17 -13 39 -20 47 -39 46 -86 169 -110 283 -3 15 -12 27 -21 27
-10 0 -13 -6 -10 -17z m556 -684 c0 -5 5 -9 11 -9 6 0 17 -6 24 -14 12 -12 12
-15 -1 -20 -23 -9 -27 -7 -21 8 3 8 -1 13 -10 12 -8 0 -19 9 -24 21 -6 17 -5
21 7 16 7 -3 14 -9 14 -14z"/>
<path d="M1346 4995 c4 -22 7 -51 6 -65 -1 -24 -1 -25 10 -3 8 16 6 32 -6 65
l-16 43 6 -40z"/>
<path d="M915 5009 c-4 -6 -5 -13 -1 -16 3 -3 -1 -12 -9 -20 -8 -8 -15 -20
-15 -26 0 -22 31 20 34 47 3 28 1 32 -9 15z"/>
<path d="M3568 4949 c-10 -5 -18 -17 -18 -25 0 -12 4 -12 25 3 37 27 31 45 -7
22z"/>
<path d="M3709 4925 c-27 -28 -59 -26 -59 4 0 14 -2 14 -10 1 -10 -15 -3 -104
9 -128 4 -7 23 20 49 68 22 44 40 80 39 80 -1 0 -14 -11 -28 -25z"/>
<path d="M4381 4903 c12 -21 31 -55 42 -75 11 -21 23 -36 25 -33 5 5 -76 145
-84 145 -3 0 4 -17 17 -37z"/>
<path d="M3786 4809 c-8 -12 -34 -42 -58 -67 -40 -43 -42 -43 -50 -22 -15 41
-20 13 -8 -42 11 -47 10 -59 -4 -87 l-17 -33 -19 22 c-10 12 -27 41 -37 66
-10 24 -21 44 -25 44 -3 0 -9 -13 -13 -30 -6 -26 1 -39 51 -100 60 -73 74 -82
74 -52 0 10 4 22 8 28 5 5 17 36 27 69 11 33 26 68 34 78 23 28 3 33 -27 6
l-27 -24 21 25 c39 48 95 132 91 137 -3 2 -12 -6 -21 -18z"/>
<path d="M4458 4763 c14 -34 52 -103 57 -103 3 0 -8 27 -25 60 -28 55 -49 83
-32 43z"/>
<path d="M3413 4690 l-22 -45 -1 35 c-1 63 -18 10 -22 -75 -8 -136 21 -168 42
-48 6 37 16 73 21 80 6 6 9 31 7 55 l-4 43 -21 -45z"/>
<path d="M1307 4493 c-43 -84 -77 -156 -77 -160 0 -4 12 10 27 32 39 57 135
255 130 268 -2 7 -38 -57 -80 -140z"/>
<path d="M3253 4543 c2 -56 6 -105 10 -109 17 -18 19 13 4 108 l-16 103 2
-102z"/>
<path d="M2620 4572 c0 -17 47 -23 152 -21 85 2 98 4 83 15 -18 14 -36 13 -67
0 -18 -8 -93 -3 -140 9 -17 4 -28 3 -28 -3z"/>
<path d="M3514 4500 c1 -31 10 -71 19 -89 16 -32 15 -111 -2 -111 -4 0 -6 -13
-5 -29 3 -47 -59 -164 -128 -242 -38 -43 -121 -97 -161 -104 -41 -8 -50 -25
-13 -25 17 0 37 -17 71 -57 38 -47 46 -63 43 -90 -3 -23 -1 -29 8 -22 9 7 11
-15 9 -88 -1 -67 0 -84 5 -53 6 37 7 29 9 -45 3 -186 14 -376 22 -363 13 21
16 5 9 -47 -5 -37 -8 -42 -10 -20 l-2 30 -8 -35 c-15 -62 -15 -418 -1 -706 12
-245 11 -626 -3 -794 -1 -19 -4 -57 -5 -85 l-3 -50 -13 60 c-8 33 -14 66 -14
74 -1 8 -4 12 -7 8 -12 -11 59 -384 93 -492 62 -199 73 -239 93 -345 23 -127
43 -185 35 -100 -8 80 12 41 31 -62 9 -46 20 -92 24 -103 5 -11 11 -33 15 -50
3 -16 10 -48 15 -70 5 -22 9 -59 10 -82 0 -35 -5 -45 -29 -62 -15 -11 -31 -18
-35 -14 -3 3 -6 1 -6 -6 0 -6 -10 -22 -22 -35 -26 -26 -196 -136 -212 -136 -6
0 -5 -5 2 -12 8 -8 15 -8 25 1 15 12 26 10 95 -21 23 -10 47 -16 52 -13 6 3
10 1 10 -4 0 -8 115 -11 365 -11 l365 0 0 29 c0 16 -7 60 -15 98 -8 37 -17 79
-20 93 -7 31 21 -48 40 -115 8 -27 17 -62 20 -77 3 -17 12 -28 21 -28 23 0 14
65 -26 173 -48 135 -58 235 -37 409 10 79 17 190 17 248 0 100 17 258 39 365
5 28 15 95 21 150 27 241 44 312 96 380 39 52 49 133 36 291 -6 76 -9 162 -6
189 2 28 9 95 15 150 6 55 12 118 14 140 3 42 14 102 41 225 10 41 17 91 16
110 -11 338 -18 427 -36 460 -35 65 -141 213 -178 248 -23 21 -35 40 -31 51 4
12 2 13 -4 3 -8 -10 -12 -10 -23 3 -7 8 -18 15 -25 15 -21 0 -22 19 -8 150 8
69 11 154 9 190 -3 36 -6 74 -7 85 0 11 -7 -9 -14 -45 -8 -43 -9 -67 -3 -71 6
-4 8 -22 5 -40 -3 -19 -11 -78 -18 -131 -11 -89 -15 -98 -34 -98 -11 0 -26 5
-31 10 -6 6 -38 15 -72 21 -73 13 -71 3 -43 175 20 123 35 344 21 309 -5 -11
-16 -63 -25 -115 -9 -52 -30 -155 -47 -227 l-30 -133 -35 0 c-30 0 -36 5 -50
38 -14 32 -25 110 -26 192 0 14 3 54 6 90 l7 65 -15 -50 c-9 -27 -21 -60 -27
-73 -7 -12 -12 -37 -12 -55 -1 -27 -5 -32 -25 -33 -14 -1 -37 2 -52 6 l-28 8
6 -51 c3 -29 8 -55 12 -59 9 -10 85 -13 99 -4 8 4 15 6 18 3 3 -2 5 -98 5
-213 1 -189 -1 -214 -20 -264 -17 -44 -20 -48 -16 -20 3 19 7 100 9 180 l4
145 -8 -115 c-8 -120 -18 -157 -68 -256 -31 -60 -111 -149 -169 -185 l-33 -21
0 21 c0 12 4 21 9 21 17 0 82 156 105 255 7 29 6 29 -8 9 -8 -11 -18 -33 -21
-47 -4 -15 -11 -30 -16 -32 -9 -6 11 61 35 119 10 21 15 41 12 44 -3 3 -1 10
4 17 5 6 15 47 21 91 12 90 26 170 34 200 6 19 -1 22 -77 38 -46 10 -89 20
-95 22 -9 2 -7 12 7 36 17 30 34 90 43 155 3 24 17 44 17 25 0 -14 69 -92 81
-92 5 0 -13 33 -38 73 -26 39 -53 93 -59 119 -14 53 -8 153 11 181 12 17 15
16 41 -20 16 -21 37 -47 47 -57 9 -11 17 -25 17 -30 0 -6 9 -22 21 -36 l20
-25 -7 40 c-4 22 -7 48 -6 57 0 10 -5 15 -13 12 -7 -3 -22 3 -32 14 -41 43
-63 73 -63 88 0 8 -4 13 -9 9 -6 -3 -17 12 -26 32 -10 21 -22 48 -28 60 -12
26 -1 45 13 23 6 -8 10 -10 10 -4 0 5 -9 20 -21 33 -12 13 -19 30 -16 42 3 10
1 17 -3 14 -5 -3 -11 3 -14 12 -3 10 -4 -7 -2 -37z m543 -845 c71 -4 157 -42
211 -93 53 -50 168 -203 208 -277 l32 -60 0 -156 c0 -89 6 -173 12 -196 10
-32 9 -48 -8 -98 -20 -60 -35 -135 -51 -255 -8 -64 -9 -63 -4 20 6 116 9 150
17 185 4 20 1 45 -9 68 -8 21 -15 69 -16 114 -1 46 -6 81 -13 85 -9 6 -14 40
-14 123 -1 11 -1 37 -1 58 -1 43 16 50 21 10 4 -25 5 -26 13 -9 5 11 4 26 -3
37 -7 10 -12 27 -12 36 -1 10 -10 -1 -22 -25 -16 -34 -25 -42 -41 -38 -38 10
-57 -14 -57 -73 0 -30 -3 -51 -7 -48 -3 4 -12 2 -20 -4 -10 -9 -13 -7 -13 10
0 38 33 125 53 142 18 14 18 16 3 31 -9 9 -16 22 -16 29 0 7 -3 9 -7 5 -5 -4
-7 -9 -6 -12 2 -2 -9 -15 -22 -28 -14 -14 -25 -34 -25 -46 0 -11 -4 -20 -10
-20 -5 0 -10 7 -10 15 0 25 -17 17 -46 -21 -25 -32 -29 -34 -35 -18 -8 20 -10
15 -12 -26 -2 -18 -9 -26 -25 -28 -13 -2 -26 -11 -29 -20 -7 -17 -40 -52 -49
-52 -4 0 -1 6 5 14 9 10 9 16 1 21 -6 4 -9 12 -7 18 2 6 -4 19 -12 29 -18 21
-31 8 -31 -31 0 -13 -3 -22 -6 -18 -11 11 -23 220 -14 236 8 14 10 14 11 1 3
-20 8 -81 9 -102 1 -10 6 -18 11 -18 6 0 7 -9 4 -20 -4 -11 -2 -20 4 -20 6 0
11 9 11 20 0 13 7 20 19 20 10 0 21 -9 24 -20 3 -12 14 -20 25 -20 28 0 35 15
17 33 -8 9 -12 23 -9 31 8 21 -13 46 -31 39 -23 -8 -45 22 -45 61 0 25 4 36
15 36 12 0 15 13 15 59 0 40 5 65 15 75 21 20 19 26 -7 26 -32 0 -68 11 -68
20 0 4 15 11 33 14 31 7 31 7 12 22 -11 8 -30 12 -42 9 -25 -6 -35 5 -23 25 7
12 12 12 22 2 20 -20 40 -14 36 11 -2 18 -8 22 -36 19 -26 -2 -32 2 -32 18 0
11 -5 20 -11 20 -5 0 -7 5 -4 10 4 6 15 8 25 5 11 -3 45 -8 77 -10z m-168
-190 c0 -132 -10 -213 -24 -182 -4 10 -4 39 1 65 10 55 11 186 2 257 l-7 50
14 -35 c9 -22 14 -78 14 -155z m543 -1490 c3 -181 2 -188 -51 -255 -24 -31
-38 -21 -17 12 31 48 49 129 42 197 -3 36 -3 112 1 170 9 152 22 89 25 -124z
m-131 -576 c-7 -44 -14 -109 -17 -143 -2 -33 -13 -101 -24 -151 -12 -49 -23
-110 -26 -134 -4 -44 -32 -116 -41 -107 -7 7 8 66 17 66 4 0 10 30 13 68 3 37
10 88 16 114 6 26 17 102 26 170 17 129 34 212 42 204 3 -3 0 -42 -6 -87z"/>
<path d="M3449 4483 c-12 -15 -12 -16 4 -10 14 5 17 0 17 -30 0 -46 5 -40 14
15 7 46 -9 58 -35 25z"/>
<path d="M760 4475 c0 -20 46 -97 72 -121 l32 -29 -32 42 c-18 23 -39 57 -47
77 -13 32 -25 46 -25 31z"/>
<path d="M4370 4463 c0 -5 5 -27 10 -50 7 -31 6 -52 -5 -82 -25 -72 -47 -111
-61 -111 -15 0 -14 -16 7 -139 5 -30 9 -95 9 -144 0 -66 3 -88 13 -85 8 3 14
41 18 119 7 109 22 219 34 238 8 14 9 213 1 239 -7 20 -26 32 -26 15z"/>
<path d="M3400 4431 c0 -11 5 -23 10 -26 6 -3 10 3 10 14 0 10 6 22 13 24 6 3
2 6 -10 6 -16 1 -23 -5 -23 -18z"/>
<path d="M3704 4414 c3 -9 9 -28 12 -42 11 -53 16 -58 25 -27 5 18 5 33 -1 39
-6 6 -10 18 -10 28 0 10 -7 18 -16 18 -11 0 -14 -5 -10 -16z"/>
<path d="M895 4220 c-4 -28 -5 -54 -2 -56 3 -3 8 18 12 46 4 28 5 54 2 56 -3
3 -8 -18 -12 -46z"/>
<path d="M1181 4140 c-1 -100 17 -264 38 -340 28 -103 37 -129 58 -167 34 -64
12 -52 -49 25 -19 24 -28 29 -28 18 0 -17 27 -61 65 -104 16 -19 17 -25 6 -31
-11 -7 -6 -16 20 -39 32 -29 32 -29 12 -41 -15 -8 -30 -8 -48 -1 -42 16 -59
12 -77 -19 -16 -28 -15 -30 3 -28 10 1 19 5 19 9 0 13 91 21 103 9 16 -16 27
-14 21 4 -4 9 0 15 9 15 8 0 17 -6 20 -14 3 -8 20 -16 38 -18 26 -2 33 -8 36
-28 2 -14 8 -26 13 -28 6 -2 10 -10 10 -18 0 -8 11 -20 25 -26 16 -7 22 -15
17 -22 -10 -13 -9 -57 2 -74 4 -7 18 -12 31 -12 13 0 36 -5 50 -12 20 -9 25
-18 25 -50 0 -22 -5 -48 -10 -59 -7 -12 -7 -30 -1 -51 l9 -33 1 40 c1 30 4 36
13 27 7 -7 25 -12 41 -12 25 0 28 -2 17 -15 -9 -11 -9 -19 -2 -28 6 -7 12 -30
14 -52 l3 -40 -40 4 c-22 1 -43 8 -47 14 -6 9 -8 9 -8 0 0 -18 -25 -16 -40 2
-7 9 -19 14 -26 11 -7 -3 -18 1 -24 9 -6 8 -34 21 -61 30 -27 9 -49 22 -49 30
0 16 -43 45 -68 45 -10 0 -23 5 -29 11 -7 7 -19 8 -30 4 -10 -5 -20 -9 -23
-10 -33 -11 -40 -20 -40 -51 0 -27 4 -34 20 -34 11 0 20 -7 20 -14 0 -11 -11
-15 -40 -13 -23 1 -34 4 -27 9 8 5 6 8 -6 8 -15 0 -16 3 -7 21 8 15 8 24 0 34
-7 9 -8 20 -2 32 10 20 5 44 -12 55 -12 8 -37 -58 -29 -78 3 -8 0 -14 -5 -14
-7 0 -11 -32 -10 -87 2 -120 -1 -177 -8 -171 -18 18 -33 138 -34 262 0 119 3
143 19 170 10 17 22 47 25 66 6 32 5 33 -5 10 -6 -14 -21 -43 -33 -65 -19 -36
-21 -56 -21 -200 0 -110 4 -171 13 -195 9 -23 17 -116 22 -270 5 -129 14 -260
20 -290 15 -68 14 -356 -1 -470 -18 -137 -17 -266 5 -342 l19 -67 -23 -53
c-29 -67 -53 -148 -46 -155 3 -3 8 0 10 8 3 8 17 48 31 89 45 128 47 138 35
192 -17 83 -25 232 -12 224 7 -4 12 -15 12 -25 0 -10 8 -36 17 -57 24 -56 24
-218 0 -259 -9 -16 -17 -36 -17 -42 0 -7 -3 -13 -8 -13 -4 0 -9 -28 -10 -62
-2 -34 -8 -70 -13 -79 -5 -10 -9 -31 -9 -48 0 -17 -3 -31 -6 -31 -15 0 -37 35
-37 61 0 15 -4 26 -9 23 -20 -12 -6 -68 28 -115 20 -27 41 -52 49 -56 30 -18
65 -86 65 -129 0 -50 24 -130 49 -159 30 -37 41 -64 53 -132 11 -65 10 -70
-15 -120 -34 -67 -34 -85 4 -127 47 -54 52 -168 13 -298 -5 -17 8 -18 180 -18
l186 0 -20 37 c-11 21 -20 43 -20 50 0 6 -7 19 -16 28 -18 17 -32 95 -17 95 5
0 14 -5 20 -11 13 -13 42 9 44 33 0 7 7 -3 15 -22 l14 -35 -7 45 c-10 70 -10
108 -1 210 12 142 47 242 148 425 99 181 144 269 155 305 7 25 50 139 65 175
8 18 36 111 77 250 8 28 19 59 25 70 11 20 11 20 -11 1 -13 -12 -21 -14 -21
-7 0 7 -5 9 -12 5 -7 -4 -8 -3 -4 5 4 6 3 17 -2 24 -10 13 -11 18 -44 312 -20
181 -32 381 -30 510 0 17 0 165 -1 330 0 204 4 325 12 376 l13 76 72 7 c127
12 153 26 41 22 -77 -3 -96 -1 -84 7 13 9 -4 12 -76 12 -84 0 -95 2 -134 28
-50 33 -71 76 -71 146 0 45 -3 52 -28 65 -36 18 -56 57 -48 90 6 23 -7 38 -16
18 -1 -5 -37 -16 -78 -24 -41 -9 -106 -24 -145 -32 -94 -22 -101 -21 -115 15
-7 17 -19 37 -27 44 -7 7 -14 22 -16 32 -5 24 -13 46 -42 113 -29 68 -62 217
-74 330 l-8 85 -2 -105z m768 -830 c19 -17 21 -23 11 -35 -17 -21 -37 -19 -50
4 -25 48 -3 66 39 31z m31 -390 c-3 -8 -8 17 -11 55 -3 39 -3 77 0 85 7 19 18
-120 11 -140z m-58 -37 c28 -25 22 -52 -14 -68 -28 -11 -34 -11 -41 1 -5 8
-12 12 -18 9 -19 -13 -8 16 19 45 32 35 30 35 54 13z m-801 -335 c18 -105 34
-167 55 -213 12 -27 20 -53 18 -57 -10 -16 -34 -7 -51 20 -10 15 -22 30 -26
33 -5 4 -12 67 -14 140 -5 130 2 163 18 77z m837 -155 c11 -19 -7 -43 -32 -43
-8 0 -18 -5 -21 -10 -11 -17 -25 0 -25 30 0 38 25 63 50 50 11 -6 23 -18 28
-27z m16 -499 c9 -8 16 -19 16 -23 0 -13 -24 -31 -43 -31 -10 0 -15 -4 -12
-10 3 -5 2 -10 -4 -10 -14 0 -24 37 -17 66 7 28 37 32 60 8z m53 -425 c16 -16
4 -49 -18 -49 -25 0 -35 26 -19 45 15 18 22 19 37 4z m-805 -561 c26 -55 40
-148 24 -163 -11 -11 -16 -4 -29 43 -18 65 -28 152 -17 152 4 0 14 -15 22 -32z"/>
<path d="M1710 4159 c-1 -16 39 -217 48 -239 7 -18 6 -33 -5 -53 -8 -16 -12
-31 -10 -34 3 -2 8 5 12 16 3 12 15 25 25 31 14 8 21 4 35 -16 9 -14 14 -32
11 -40 -3 -8 0 -13 7 -11 8 1 11 -10 10 -32 -1 -22 2 -29 7 -21 6 9 17 -1 39
-36 17 -27 31 -45 31 -39 0 5 12 -3 26 -18 25 -28 135 -87 161 -87 7 0 13 -7
13 -15 0 -12 4 -13 25 -3 18 8 28 8 39 -1 12 -10 18 -9 34 7 11 11 26 22 33
25 14 5 -3 8 -86 12 -22 2 -48 3 -57 4 -10 1 -26 9 -36 19 -10 10 -34 28 -53
39 -66 41 -143 145 -195 263 -15 36 -41 87 -56 113 -15 26 -28 56 -28 66 0 15
-29 65 -30 50z"/>
<path d="M4540 4026 c-30 -34 -72 -75 -92 -91 -43 -33 -52 -56 -10 -27 32 24
152 144 164 167 19 32 -9 11 -62 -49z"/>
<path d="M3071 4042 c-1 -12 -9 -35 -18 -50 l-16 -27 27 26 c22 21 25 29 17
50 -10 24 -10 24 -10 1z"/>
<path d="M2415 3838 c6 -60 3 -81 -13 -118 -25 -59 -47 -78 -60 -53 -5 10 -7
25 -4 33 3 8 -9 -2 -27 -22 -18 -20 -42 -38 -54 -41 -20 -3 -19 -4 6 -12 29
-8 137 21 137 36 0 4 14 10 31 14 43 10 65 77 40 123 -6 9 -17 38 -27 65 -25
69 -37 59 -29 -25z"/>
<path d="M4191 3880 c-1 -15 -40 -135 -56 -172 -4 -10 -3 -18 2 -18 13 0 67
173 60 191 -4 11 -6 11 -6 -1z"/>
<path d="M2500 3805 c10 -11 9 -24 -4 -62 -9 -25 -16 -57 -16 -70 0 -18 -6
-23 -25 -23 -27 0 -34 -15 -10 -24 19 -7 20 -26 1 -26 -9 0 -12 -7 -9 -18 8
-34 -45 -118 -110 -173 -34 -29 -64 -54 -66 -56 -2 -2 -2 -6 1 -9 11 -10 84
42 138 99 10 10 50 83 90 162 l72 145 -26 35 c-15 19 -32 35 -38 35 -7 0 -6
-5 2 -15z"/>
<path d="M2694 3775 c-12 -31 -9 -78 6 -83 13 -4 13 -3 2 11 -11 13 -11 21 2
46 19 35 19 41 6 41 -6 0 -13 -7 -16 -15z"/>
<path d="M970 3776 c0 -5 14 -33 31 -63 29 -51 40 -108 24 -132 -3 -6 -1 -11
4 -11 6 0 11 11 11 25 0 33 11 32 35 -5 11 -16 24 -30 28 -30 9 0 4 10 -25 52
-10 14 -18 34 -19 45 0 16 -1 16 -9 -2 -8 -18 -9 -17 -9 8 -1 28 -71 140 -71
113z"/>
<path d="M1070 3746 c0 -8 4 -16 9 -18 5 -1 19 -19 31 -38 12 -19 19 -26 15
-15 -4 11 -10 28 -12 38 -3 9 -9 17 -14 17 -5 0 -9 7 -9 15 0 8 -4 15 -10 15
-5 0 -10 -6 -10 -14z"/>
<path d="M3791 3695 c0 -27 4 -57 9 -65 12 -18 12 39 0 85 -7 26 -8 24 -9 -20z"/>
<path d="M1792 3682 c-1 -18 3 -42 8 -53 12 -22 36 -25 44 -6 3 6 4 3 3 -8 -1
-14 5 -21 21 -23 12 -2 22 -8 22 -13 0 -5 3 -8 8 -8 20 3 31 -3 37 -20 5 -16
65 -49 65 -35 0 2 18 -5 40 -16 22 -11 40 -22 40 -24 0 -7 -24 -1 -40 9 -13 8
-13 7 -1 -9 8 -9 27 -24 43 -32 16 -8 33 -25 38 -37 l9 -22 0 23 c1 13 8 37
17 53 l15 30 -36 -5 c-24 -4 -34 -2 -30 4 4 6 3 10 -2 9 -20 -3 -33 4 -94 51
-35 27 -71 50 -79 50 -24 0 -61 30 -54 42 5 8 1 9 -10 5 -15 -6 -17 -3 -11 26
l6 32 -25 -27 -25 -28 -4 33 -4 32 -1 -33z"/>
<path d="M2690 3184 c0 -29 86 -184 103 -184 11 0 8 12 -9 31 -9 10 -33 50
-55 91 -21 40 -39 68 -39 62z"/>
<path d="M1420 3052 c0 -13 40 -52 53 -52 9 0 9 2 1 8 -6 4 -14 17 -18 30 -7
20 -36 32 -36 14z"/>
<path d="M3043 2981 c-17 -39 -28 -73 -23 -76 5 -3 16 19 25 47 10 29 22 58
27 65 6 7 8 17 6 23 -2 6 -18 -20 -35 -59z"/>
<path d="M2646 2945 c-13 -20 -15 -30 -7 -38 8 -8 11 -6 11 5 0 9 5 20 12 24
8 5 9 1 4 -12 -5 -14 -4 -16 4 -8 7 7 7 19 2 33 l-8 23 -18 -27z"/>
<path d="M2507 2830 c-21 -25 -21 -30 -3 -30 8 0 18 9 21 21 9 29 2 32 -18 9z"/>
<path d="M2387 2655 c-21 -44 -22 -60 -1 -22 8 15 19 27 24 27 6 0 10 7 10 15
0 26 -16 16 -33 -20z"/>
<path d="M2760 2200 c0 -4 7 -13 15 -20 9 -7 25 -25 35 -40 19 -27 19 -28 0
-68 -11 -23 -20 -46 -20 -53 0 -7 -14 -34 -31 -61 -17 -27 -29 -51 -27 -54 8
-8 78 102 78 123 0 11 4 23 9 29 5 5 11 18 13 29 3 18 6 16 21 -10 12 -23 16
-25 17 -11 0 10 -9 33 -19 50 -21 33 -91 100 -91 86z"/>
<path d="M2675 1488 c-7 -72 -11 -112 -14 -140 -1 -5 -5 -8 -9 -8 -4 0 -6 45
-4 100 6 151 -12 120 -26 -43 -6 -79 -18 -160 -26 -179 -15 -34 -16 -35 -58
-27 -74 14 -98 21 -98 30 0 5 -3 9 -8 9 -10 0 -56 -256 -49 -274 4 -10 15 -12
44 -6 46 9 73 20 73 29 0 4 13 22 29 41 l29 35 -1 -65 -2 -65 -42 -23 c-48
-26 -58 -52 -18 -44 15 2 25 0 25 -7 0 -7 4 -10 9 -7 13 8 23 -40 15 -79 -3
-18 -1 -41 4 -52 7 -13 7 -23 -2 -35 -14 -19 -146 -88 -169 -88 -21 0 -28 27
-18 70 4 19 6 52 3 73 -2 21 0 37 4 36 22 -4 33 2 39 21 4 11 18 34 32 50 13
17 20 30 14 30 -5 0 -13 -5 -16 -11 -4 -6 -13 -8 -20 -5 -8 3 -16 0 -19 -7 -2
-7 -5 -4 -5 6 -1 9 -4 17 -9 17 -7 0 -21 -73 -53 -265 -19 -110 -102 -412
-140 -503 -5 -13 -5 -21 0 -18 14 9 52 95 77 176 18 60 23 68 23 42 1 -18 5
-31 10 -28 5 3 8 20 7 38 -3 38 27 103 53 118 31 16 53 2 51 -34 -3 -51 0 -80
6 -73 4 3 8 17 9 29 25 204 83 313 166 310 31 -1 59 -22 59 -44 0 -15 19 -38
32 -38 4 0 8 7 8 15 0 10 10 15 28 15 18 0 23 3 14 8 -7 5 -10 16 -6 25 8 21
24 22 24 2 0 -8 7 -15 15 -15 9 0 20 -11 25 -25 12 -31 20 -33 12 -3 -3 14 -1
19 6 14 15 -9 33 -76 25 -90 -4 -6 2 -4 12 4 17 14 18 13 13 -11 -3 -19 1 -30
14 -38 13 -8 17 -18 13 -29 -3 -9 -3 -13 1 -9 10 9 58 -139 74 -228 7 -38 16
-77 21 -85 4 -8 12 -41 19 -72 7 -38 16 -58 26 -58 19 0 17 27 -6 79 -27 58
-27 211 0 211 14 0 30 -52 24 -78 -5 -25 -4 -26 9 -9 14 17 16 16 27 -20 14
-41 28 -63 41 -63 9 0 -26 78 -77 171 -44 82 -87 200 -114 314 -11 46 -14 459
-5 587 3 44 2 47 -15 38 -13 -7 -20 -6 -23 3 -3 6 -6 2 -6 -11 -1 -36 -34 -23
-48 18 -8 21 -11 62 -8 100 2 36 0 74 -4 85 -10 25 -30 -80 -32 -172 -1 -35
-6 -63 -10 -63 -5 0 -9 10 -10 23 0 12 -2 31 -5 42 -6 33 -7 95 -1 200 6 102
2 89 -21 -77 -7 -49 -8 -87 -2 -102 6 -18 5 -28 -6 -37 -8 -7 -12 -20 -9 -30
5 -16 1 -19 -29 -19 -33 0 -36 2 -36 31 0 17 4 38 10 48 10 19 26 301 18 301
-3 0 -9 -37 -13 -82z m106 -369 c13 -21 11 -57 -3 -62 -10 -4 -10 -7 -1 -14 9
-6 11 -38 8 -112 -5 -108 -14 -176 -23 -167 -12 13 -30 -29 -21 -52 11 -27 -3
-35 -65 -36 -61 -1 -93 11 -100 36 -15 57 -2 331 20 400 3 11 18 18 47 21 73
6 129 1 138 -14z m104 -158 c0 -22 -3 -37 -7 -34 -5 2 -8 11 -8 19 0 8 -4 14
-10 14 -5 0 -10 7 -10 16 0 9 5 12 12 8 8 -5 9 0 5 16 -4 17 -3 20 6 11 6 -6
12 -29 12 -50z m-480 -488 c1 -20 -3 -22 -42 -21 -24 0 -43 2 -43 4 0 1 4 14
9 27 8 22 14 24 42 18 24 -5 33 -12 34 -28z"/>
<path d="M2823 1515 c0 -33 2 -45 4 -27 2 18 2 45 0 60 -2 15 -4 0 -4 -33z"/>
<path d="M2492 1448 c-17 -29 -33 -69 -36 -88 l-6 -35 16 35 c56 120 64 140
59 140 -2 0 -17 -24 -33 -52z"/>
<path d="M2672 313 c-1 -142 -5 -270 -8 -286 -5 -25 -3 -27 25 -27 35 0 37 7
16 65 -11 30 -15 96 -15 273 0 127 -4 232 -8 232 -5 0 -9 -116 -10 -257z"/>
<path d="M2377 141 c-19 -112 -21 -150 -9 -136 9 11 36 224 29 231 -2 2 -11
-41 -20 -95z"/>
<path d="M2152 40 c-24 -32 -27 -40 -12 -40 10 0 44 59 38 66 -3 2 -14 -10
-26 -26z"/>
</g>
</svg>
